<svg xmlns="http://www.w3.org/2000/svg" version="1.1" width="90" height="110"><rect x="0" y="0" width="10" height="10" style="fill:rgb(0,0,0);"/><rect x="10" y="0" width="10" height="10" style="fill:rgb(0,0,0);"/><rect x="20" y="0" width="10" height="10" style="fill:rgb(0,0,0);"/><rect x="30" y="0" width="10" height="10" style="fill:rgb(0,0,0);"/><rect x="40" y="0" width="10" height="10" style="fill:rgb(255,255,255);"/><rect x="50" y="0" width="10" height="10" style="fill:rgb(255,255,255);"/><rect x="60" y="0" width="10" height="10" style="fill:rgb(0,0,0);"/><rect x="70" y="0" width="10" height="10" style="fill:rgb(0,0,0);"/><rect x="80" y="0" width="10" height="10" style="fill:rgb(0,0,0);"/><rect x="0" y="10" width="10" height="10" style="fill:rgb(0,0,0);"/><rect x="10" y="10" width="10" height="10" style="fill:rgb(0,0,0);"/><rect x="20" y="10" width="10" height="10" style="fill:rgb(0,0,0);"/><rect x="30" y="10" width="10" height="10" style="fill:rgb(255,255,255);"/><rect x="40" y="10" width="10" height="10" style="fill:rgb(0,0,0);"/><rect x="50" y="10" width="10" height="10" style="fill:rgb(0,0,0);"/><rect x="60" y="10" width="10" height="10" style="fill:rgb(255,255,255);"/><rect x="70" y="10" width="10" height="10" style="fill:rgb(0,0,0);"/><rect x="80" y="10" width="10" height="10" style="fill:rgb(0,0,0);"/><rect x="0" y="20" width="10" height="10" style="fill:rgb(0,0,0);"/><rect x="10" y="20" width="10" height="10" style="fill:rgb(0,0,0);"/><rect x="20" y="20" width="10" height="10" style="fill:rgb(0,0,0);"/><rect x="30" y="20" width="10" height="10" style="fill:rgb(255,128,0);"/><rect x="40" y="20" width="10" height="10" style="fill:rgb(0,0,0);"/><rect x="50" y="20" width="10" height="10" style="fill:rgb(0,0,0);"/><rect x="60" y="20" width="10" height="10" style="fill:rgb(0,0,0);"/><rect x="70" y="20" width="10" height="10" style="fill:rgb(255,255,255);"/><rect x="80" y="20" width="10" height="10" style="fill:rgb(0,0,0);"/><rect x="0" y="30" width="10" height="10" style="fill:rgb(0,0,0);"/><rect x="10" y="30" width="10" height="10" style="fill:rgb(0,0,0);"/><rect x="20" y="30" width="10" height="10" style="fill:rgb(0,0,0);"/><rect x="30" y="30" width="10" height="10" style="fill:rgb(0,0,0);"/><rect x="40" y="30" width="10" height="10" style="fill:rgb(255,128,0);"/><rect x="50" y="30" width="10" height="10" style="fill:rgb(0,0,0);"/><rect x="60" y="30" width="10" height="10" style="fill:rgb(0,0,0);"/><rect x="70" y="30" width="10" height="10" style="fill:rgb(0,0,0);"/><rect x="80" y="30" width="10" height="10" style="fill:rgb(255,255,255);"/><rect x="0" y="40" width="10" height="10" style="fill:rgb(0,0,0);"/><rect x="10" y="40" width="10" height="10" style="fill:rgb(0,0,0);"/><rect x="20" y="40" width="10" height="10" style="fill:rgb(255,255,255);"/><rect x="30" y="40" width="10" height="10" style="fill:rgb(255,255,255);"/><rect x="40" y="40" width="10" height="10" style="fill:rgb(0,0,0);"/><rect x="50" y="40" width="10" height="10" style="fill:rgb(255,255,255);"/><rect x="60" y="40" width="10" height="10" style="fill:rgb(0,0,0);"/><rect x="70" y="40" width="10" height="10" style="fill:rgb(0,0,0);"/><rect x="80" y="40" width="10" height="10" style="fill:rgb(255,255,255);"/><rect x="0" y="50" width="10" height="10" style="fill:rgb(0,0,0);"/><rect x="10" y="50" width="10" height="10" style="fill:rgb(255,255,255);"/><rect x="20" y="50" width="10" height="10" style="fill:rgb(0,0,0);"/><rect x="30" y="50" width="10" height="10" style="fill:rgb(255,255,255);"/><rect x="40" y="50" width="10" height="10" style="fill:rgb(255,128,0);"/><rect x="50" y="50" width="10" height="10" style="fill:rgb(255,128,0);"/><rect x="60" y="50" width="10" height="10" style="fill:rgb(0,0,0);"/><rect x="70" y="50" width="10" height="10" style="fill:rgb(255,255,255);"/><rect x="80" y="50" width="10" height="10" style="fill:rgb(0,0,0);"/><rect x="0" y="60" width="10" height="10" style="fill:rgb(255,255,255);"/><rect x="10" y="60" width="10" height="10" style="fill:rgb(0,0,0);"/><rect x="20" y="60" width="10" height="10" style="fill:rgb(0,0,0);"/><rect x="30" y="60" width="10" height="10" style="fill:rgb(255,255,255);"/><rect x="40" y="60" width="10" height="10" style="fill:rgb(255,128,0);"/><rect x="50" y="60" width="10" height="10" style="fill:rgb(0,0,0);"/><rect x="60" y="60" width="10" height="10" style="fill:rgb(255,255,255);"/><rect x="70" y="60" width="10" height="10" style="fill:rgb(0,0,0);"/><rect x="80" y="60" width="10" height="10" style="fill:rgb(0,0,0);"/><rect x="0" y="70" width="10" height="10" style="fill:rgb(255,255,255);"/><rect x="10" y="70" width="10" height="10" style="fill:rgb(0,0,0);"/><rect x="20" y="70" width="10" height="10" style="fill:rgb(0,0,0);"/><rect x="30" y="70" width="10" height="10" style="fill:rgb(0,0,0);"/><rect x="40" y="70" width="10" height="10" style="fill:rgb(0,0,0);"/><rect x="50" y="70" width="10" height="10" style="fill:rgb(255,255,255);"/><rect x="60" y="70" width="10" height="10" style="fill:rgb(0,0,0);"/><rect x="70" y="70" width="10" height="10" style="fill:rgb(0,0,0);"/><rect x="80" y="70" width="10" height="10" style="fill:rgb(0,0,0);"/><rect x="0" y="80" width="10" height="10" style="fill:rgb(0,0,0);"/><rect x="10" y="80" width="10" height="10" style="fill:rgb(255,255,255);"/><rect x="20" y="80" width="10" height="10" style="fill:rgb(0,0,0);"/><rect x="30" y="80" width="10" height="10" style="fill:rgb(0,0,0);"/><rect x="40" y="80" width="10" height="10" style="fill:rgb(0,0,0);"/><rect x="50" y="80" width="10" height="10" style="fill:rgb(255,128,0);"/><rect x="60" y="80" width="10" height="10" style="fill:rgb(0,0,0);"/><rect x="70" y="80" width="10" height="10" style="fill:rgb(0,0,0);"/><rect x="80" y="80" width="10" height="10" style="fill:rgb(0,0,0);"/><rect x="0" y="90" width="10" height="10" style="fill:rgb(0,0,0);"/><rect x="10" y="90" width="10" height="10" style="fill:rgb(0,0,0);"/><rect x="20" y="90" width="10" height="10" style="fill:rgb(255,255,255);"/><rect x="30" y="90" width="10" height="10" style="fill:rgb(0,0,0);"/><rect x="40" y="90" width="10" height="10" style="fill:rgb(0,0,0);"/><rect x="50" y="90" width="10" height="10" style="fill:rgb(255,255,255);"/><rect x="60" y="90" width="10" height="10" style="fill:rgb(0,0,0);"/><rect x="70" y="90" width="10" height="10" style="fill:rgb(0,0,0);"/><rect x="80" y="90" width="10" height="10" style="fill:rgb(0,0,0);"/><rect x="0" y="100" width="10" height="10" style="fill:rgb(0,0,0);"/><rect x="10" y="100" width="10" height="10" style="fill:rgb(0,0,0);"/><rect x="20" y="100" width="10" height="10" style="fill:rgb(0,0,0);"/><rect x="30" y="100" width="10" height="10" style="fill:rgb(255,255,255);"/><rect x="40" y="100" width="10" height="10" style="fill:rgb(255,255,255);"/><rect x="50" y="100" width="10" height="10" style="fill:rgb(0,0,0);"/><rect x="60" y="100" width="10" height="10" style="fill:rgb(0,0,0);"/><rect x="70" y="100" width="10" height="10" style="fill:rgb(0,0,0);"/><rect x="80" y="100" width="10" height="10" style="fill:rgb(0,0,0);"/></svg>